<?xml version="1.0" standalone="no"?><!DOCTYPE svg PUBLIC "-//W3C//DTD SVG 1.1//EN" "http://www.w3.org/Graphics/SVG/1.1/DTD/svg11.dtd"><svg t="1703659579945" class="icon" viewBox="0 0 1024 1024" version="1.1" xmlns="http://www.w3.org/2000/svg" p-id="5392" xmlns:xlink="http://www.w3.org/1999/xlink" width="32" height="32"><path d="M978.179753 437.178602l8.25236-437.178602-149.131936 149.171233a488.107453 488.107453 0 0 0-341.7656-139.111213C224.464195 10.020723 4.715634 229.808581 4.715634 500.839665c0 271.109678 219.748561 490.818942 490.818943 490.818943 224.896462 0 413.993399-151.371863 472.074296-357.641569H827.161563c-52.815105 131.448308-181.276844 224.346304-331.626986 224.346304a357.484381 357.484381 0 0 1-357.484381-357.484381c0-197.506486 160.056489-357.602272 357.484381-357.602272 96.277535 0 182.809425 38.746796 246.981349 100.6002l-201.514775 201.475478 437.178602-8.213063z" fill="currentColor" p-id="5393"></path></svg>